<svg xmlns="http://www.w3.org/2000/svg" height="448.62" viewBox="0 0 543.48 448.62" width="543.48"><defs><radialGradient cx="110.56" cy="435.73" fx="110.56" fy="435.73" gradientTransform="translate(-35478.2333 140509.7494) scale(324.0354 -322.0186)" gradientUnits="userSpaceOnUse" id="radial-gradient-178" r=".5"><stop offset="0" stop-color="#fff" stop-opacity=".9" /><stop offset=".03" stop-color="#fdefe2" stop-opacity=".84" /><stop offset=".09" stop-color="#fcd7b6" stop-opacity=".75" /><stop offset=".15" stop-color="#fac390" stop-opacity=".67" /><stop offset=".21" stop-color="#f9b271" stop-opacity=".61" /><stop offset=".28" stop-color="#f8a559" stop-opacity=".56" /><stop offset=".34" stop-color="#f79c48" stop-opacity=".53" /><stop offset=".41" stop-color="#f7963e" stop-opacity=".51" /><stop offset=".5" stop-color="#f7953b" stop-opacity=".5" /><stop offset=".6" stop-color="#f79840" stop-opacity=".49" /><stop offset=".69" stop-color="#f7a152" stop-opacity=".44" /><stop offset=".77" stop-color="#f9b170" stop-opacity=".36" /><stop offset=".86" stop-color="#fac899" stop-opacity=".26" /><stop offset=".94" stop-color="#fde5cf" stop-opacity=".12" /><stop offset="1" stop-color="#fff" stop-opacity="0" /></radialGradient></defs><g id="Nebula1Coral"><path d="M349.94,197.59a4.26,4.78,0,1,0,-8.52,0a4.26,4.78,0,1,0,8.52,0zM330.04,197.59a4.26,4.78,0,1,0,-8.52,0a4.26,4.78,0,1,0,8.52,0zM366.99,216.71a4.26,4.78,0,1,0,-8.52,0a4.26,4.78,0,1,0,8.52,0zM330.04,175.28a4.26,4.78,0,1,0,-8.52,0a4.26,4.78,0,1,0,8.52,0zM379.78,231.05a4.26,4.78,0,1,0,-8.52,0a4.26,4.78,0,1,0,8.52,0zM317.25,160.94a4.26,4.78,0,1,0,-8.52,0a4.26,4.78,0,1,0,8.52,0zM349.94,256.54a4.26,4.78,0,1,0,-8.52,0a4.26,4.78,0,1,0,8.52,0zM348.52,125.89a2.84,3.19,0,1,0,-5.68,0a2.84,3.19,0,1,0,5.68,0zM300.2,251.76a2.84,3.19,0,1,0,-5.68,0a2.84,3.19,0,1,0,5.68,0zM423.84,197.59a2.84,3.19,0,1,0,-5.68,0a2.84,3.19,0,1,0,5.68,0zM288.83,264.51a2.84,3.19,0,1,0,-5.68,0a2.84,3.19,0,1,0,5.68,0zM440.9,197.59a2.84,3.19,0,1,0,-5.68,0a2.84,3.19,0,1,0,5.68,0zM253.3,197.59a2.84,3.19,0,1,0,-5.68,0a2.84,3.19,0,1,0,5.68,0zM423.84,282.03a2.84,3.19,0,1,0,-5.68,0a2.84,3.19,0,1,0,5.68,0zM268.93,108.36a2.84,3.19,0,1,0,-5.68,0a2.84,3.19,0,1,0,5.68,0zM430.95,290a2.84,3.19,0,1,0,-5.68,0a2.84,3.19,0,1,0,5.68,0zM256.14,95.61a1.42,1.59,0,1,0,-2.84,0a1.42,1.59,0,1,0,2.84,0zM347.1,350.55a1.42,1.59,0,1,0,-2.84,0a1.42,1.59,0,1,0,2.84,0zM347.1,41.44a1.42,1.59,0,1,0,-2.84,0a1.42,1.59,0,1,0,2.84,0zM240.51,317.09a1.42,1.59,0,1,0,-2.84,0a1.42,1.59,0,1,0,2.84,0zM362.73,183.25a4.26,4.78,0,1,0,-8.52,0a4.26,4.78,0,1,0,8.52,0zM332.88,216.71a4.26,4.78,0,1,0,-8.52,0a4.26,4.78,0,1,0,8.52,0zM307.3,197.59a4.26,4.78,0,1,0,-8.52,0a4.26,4.78,0,1,0,8.52,0zM396.84,197.59a4.26,4.78,0,1,0,-8.52,0a4.26,4.78,0,1,0,8.52,0zM392.58,246.98a2.84,3.19,0,1,0,-5.68,0a2.84,3.19,0,1,0,5.68,0zM300.2,143.41a2.84,3.19,0,1,0,-5.68,0a2.84,3.19,0,1,0,5.68,0zM348.52,282.03a2.84,3.19,0,1,0,-5.68,0a2.84,3.19,0,1,0,5.68,0zM348.52,100.39a2.84,3.19,0,1,0,-5.68,0a2.84,3.19,0,1,0,5.68,0zM413.89,124.29a2.84,3.19,0,1,0,-5.68,0a2.84,3.19,0,1,0,5.68,0zM273.19,282.03a2.84,3.19,0,1,0,-5.68,0a2.84,3.19,0,1,0,5.68,0zM428.11,108.36a2.84,3.19,0,1,0,-5.68,0a2.84,3.19,0,1,0,5.68,0zM230.56,197.59a2.84,3.19,0,1,0,-5.68,0a2.84,3.19,0,1,0,5.68,0zM477.85,197.59a1.42,1.59,0,1,0,-2.84,0a1.42,1.59,0,1,0,2.84,0zM251.88,90.83a1.42,1.59,0,1,0,-2.84,0a1.42,1.59,0,1,0,2.84,0zM443.74,305.93a1.42,1.59,0,1,0,-2.84,0a1.42,1.59,0,1,0,2.84,0zM240.51,78.09a1.42,1.59,0,1,0,-2.84,0a1.42,1.59,0,1,0,2.84,0zM349.94,168.91a4.26,4.78,0,1,0,-8.52,0a4.26,4.78,0,1,0,8.52,0zM349.94,231.05a4.26,4.78,0,1,0,-8.52,0a4.26,4.78,0,1,0,8.52,0zM379.78,164.13a4.26,4.78,0,1,0,-8.52,0a4.26,4.78,0,1,0,8.52,0zM317.25,234.23a4.26,4.78,0,1,0,-8.52,0a4.26,4.78,0,1,0,8.52,0zM408.21,264.51a2.84,3.19,0,1,0,-5.68,0a2.84,3.19,0,1,0,5.68,0zM284.56,125.89a2.84,3.19,0,1,0,-5.68,0a2.84,3.19,0,1,0,5.68,0zM348.52,74.9a2.84,3.19,0,1,0,-5.68,0a2.84,3.19,0,1,0,5.68,0zM348.52,325.05a2.84,3.19,0,1,0,-5.68,0a2.84,3.19,0,1,0,5.68,0zM256.14,299.56a1.42,1.59,0,1,0,-2.84,0a1.42,1.59,0,1,0,2.84,0zM442.32,90.83a1.42,1.59,0,1,0,-2.84,0a1.42,1.59,0,1,0,2.84,0zM250.46,305.93a1.42,1.59,0,1,0,-2.84,0a1.42,1.59,0,1,0,2.84,0zM500.59,197.59a1.42,1.59,0,1,0,-2.84,0a1.42,1.59,0,1,0,2.84,0z" style="fill:#f7953b;isolation:isolate;opacity:.5" /><path d="M348.52,199.18a4.26,4.78,0,1,0,-8.52,0a4.26,4.78,0,1,0,8.52,0zM358.46,197.59a4.26,4.78,0,1,0,-8.52,0a4.26,4.78,0,1,0,8.52,0zM369.83,175.28a4.26,4.78,0,1,0,-8.52,0a4.26,4.78,0,1,0,8.52,0zM314.41,157.75a4.26,4.78,0,1,0,-8.52,0a4.26,4.78,0,1,0,8.52,0zM284.56,269.29a2.84,3.19,0,1,0,-5.68,0a2.84,3.19,0,1,0,5.68,0zM362.73,211.93a4.26,4.78,0,1,0,-8.52,0a4.26,4.78,0,1,0,8.52,0zM385.47,157.75a4.26,4.78,0,1,0,-8.52,0a4.26,4.78,0,1,0,8.52,0zM304.46,246.98a2.84,3.19,0,1,0,-5.68,0a2.84,3.19,0,1,0,5.68,0zM418.16,197.59a2.84,3.19,0,1,0,-5.68,0a2.84,3.19,0,1,0,5.68,0zM295.93,138.63a2.84,3.19,0,1,0,-5.68,0a2.84,3.19,0,1,0,5.68,0zM413.89,270.88a2.84,3.19,0,1,0,-5.68,0a2.84,3.19,0,1,0,5.68,0zM430.95,105.17a2.84,3.19,0,1,0,-5.68,0a2.84,3.19,0,1,0,5.68,0z" style="fill:#f7953b;isolation:isolate;opacity:.5" /><ellipse cx="345.68" cy="197.59" rx="4.26" ry="4.78" style="fill:#f7953b;isolation:isolate;opacity:.5" /><ellipse cx="345.68" cy="194.4" rx="4.26" ry="4.78" style="fill:#f7953b;isolation:isolate;opacity:.5" /><path d="M344.25,203.96a4.26,4.78,0,1,0,-8.52,0a4.26,4.78,0,1,0,8.52,0zM344.25,191.21a4.26,4.78,0,1,0,-8.52,0a4.26,4.78,0,1,0,8.52,0z" style="fill:#f7953b;isolation:isolate;opacity:.5" /><ellipse cx="345.68" cy="197.59" rx="4.26" ry="4.78" style="fill:#f7953b;isolation:isolate;opacity:.5" /><ellipse cx="347.1" cy="199.18" rx="4.26" ry="4.78" style="fill:#f7953b;isolation:isolate;opacity:.5" /><ellipse cx="345.68" cy="197.59" rx="162.02" ry="181.64" style="fill:url(#radial-gradient-178)" /></g></svg>