<svg xmlns="http://www.w3.org/2000/svg" height="448.62" viewBox="0 0 543.48 448.62" width="543.48"><g id="Body1Espresso"><g id="octagons-11"><path d="M354.31,214.83l-1.7,1.7h-2.41l-1.71-1.7v-2.41l1.71-1.71h2.41l1.7,1.71v2.41Z" style="fill:#331c10;isolation:isolate;opacity:.95" /><path d="M363.19,214.78l-1.63,1.63h-2.31l-1.64-1.63v-2.31l1.64-1.64h2.31l1.63,1.64v2.31Z" style="fill:#331c10;isolation:isolate;opacity:.95" /><path d="M372.2,214.78l-1.64,1.64h-2.32l-1.64-1.64v-2.32l1.64-1.64h2.32l1.64,1.64v2.32Z" style="fill:#331c10;isolation:isolate;opacity:.95" /><path d="M381.57,214.93l-1.86,1.86h-2.62l-1.86-1.86v-2.62l1.86-1.86h2.62l1.86,1.86v2.62Z" style="fill:#331c10;isolation:isolate;opacity:.95" /><path d="M354.18,223.77l-1.63,1.63h-2.3l-1.63-1.63v-2.3l1.63-1.63h2.3l1.63,1.63v2.3ZM363.62,223.96l-1.88,1.88h-2.67l-1.89-1.88v-2.67l1.89-1.89h2.67l1.88,1.89v2.67Z" style="fill:#331c10;isolation:isolate;opacity:.95" /><path d="M372.17,223.77l-1.62,1.62h-2.29l-1.63-1.62v-2.29l1.63-1.63h2.29l1.62,1.63v2.29ZM381.21,223.78l-1.65,1.65h-2.32l-1.65-1.65v-2.32l1.65-1.65h2.32l1.65,1.65v2.32Z" style="fill:#331c10;isolation:isolate;opacity:.95" /><path d="M354.09,232.74l-1.57,1.57h-2.23l-1.58-1.57v-2.23l1.58-1.58h2.23l1.57,1.58v2.23Z" style="fill:#331c10;isolation:isolate;opacity:.93" /><path d="M363.23,232.79l-1.66,1.66h-2.34l-1.65-1.66v-2.34l1.65-1.65h2.34l1.66,1.65v2.34ZM372.11,232.74l-1.59,1.59h-2.24l-1.58-1.59v-2.24l1.58-1.58h2.24l1.59,1.58v2.24Z" style="fill:#331c10;isolation:isolate;opacity:.93" /><path d="M381.52,232.91l-1.83,1.83h-2.58l-1.83-1.83v-2.58l1.83-1.83h2.58l1.83,1.83v2.58Z" style="fill:#331c10;isolation:isolate;opacity:.93" /><path d="M354.04,241.71l-1.55,1.55h-2.18l-1.55-1.55v-2.18l1.55-1.55h2.18l1.55,1.55v2.18ZM363.64,241.96l-1.9,1.9h-2.68l-1.89-1.9v-2.68l1.89-1.89h2.68l1.9,1.89v2.68Z" style="fill:#331c10;isolation:isolate;opacity:.91" /><path d="M371.92,241.66l-1.48,1.48h-2.08l-1.48-1.48v-2.08l1.48-1.48h2.08l1.48,1.48v2.08Z" style="fill:#331c10;isolation:isolate;opacity:.91" /><path d="M336.18,250.77l-1.63,1.63h-2.3l-1.63-1.63v-2.3l1.63-1.63h2.3l1.63,1.63v2.3Z" style="fill:#331c10;isolation:isolate;opacity:.87" /><path d="M345.52,250.91l-1.83,1.83h-2.58l-1.83-1.83v-2.58l1.83-1.83h2.58l1.83,1.83v2.58ZM354.48,250.9l-1.8,1.8h-2.55l-1.8-1.8v-2.55l1.8-1.8h2.55l1.8,1.8v2.55Z" style="fill:#331c10;isolation:isolate;opacity:.87" /><path d="M363.57,250.93l-1.86,1.86h-2.62l-1.86-1.86v-2.62l1.86-1.86h2.62l1.86,1.86v2.62ZM371.98,250.69l-1.51,1.51h-2.14l-1.51-1.51v-2.14l1.51-1.51h2.14l1.51,1.51v2.14Z" style="fill:#331c10;isolation:isolate;opacity:.87" /><path d="M336.28,259.81l-1.69,1.69h-2.38l-1.69-1.69v-2.38l1.69-1.69h2.38l1.69,1.69v2.38Z" style="fill:#331c10;isolation:isolate;opacity:.82" /><path d="M345.43,259.87l-1.78,1.78h-2.5l-1.77-1.78v-2.5l1.77-1.77h2.5l1.78,1.77v2.5Z" style="fill:#331c10;isolation:isolate;opacity:.82" /><path d="M354.15,259.76l-1.61,1.61h-2.28l-1.61-1.61v-2.28l1.61-1.61h2.28l1.61,1.61v2.28ZM362.89,259.65l-1.46,1.46h-2.06l-1.46-1.46v-2.06l1.46-1.46h2.06l1.46,1.46v2.06Z" style="fill:#331c10;isolation:isolate;opacity:.82" /><path d="M372.38,259.85l-1.75,1.75h-2.46l-1.75-1.75v-2.46l1.75-1.75h2.46l1.75,1.75v2.46Z" style="fill:#331c10;isolation:isolate;opacity:.82" /><path d="M336.28,268.81l-1.69,1.69h-2.38l-1.68-1.69v-2.38l1.68-1.68h2.38l1.69,1.68v2.38ZM344.97,268.69l-1.5,1.5h-2.13l-1.51-1.5v-2.13l1.51-1.51h2.13l1.5,1.51v2.13Z" style="fill:#331c10;isolation:isolate;opacity:.77" /><path d="M354.36,268.85l-1.73,1.73h-2.46l-1.73-1.73v-2.46l1.73-1.73h2.46l1.73,1.73v2.46Z" style="fill:#331c10;isolation:isolate;opacity:.77" /><path d="M363.44,268.88l-1.78,1.78h-2.52l-1.78-1.78v-2.52l1.78-1.78h2.52l1.78,1.78v2.52ZM371.98,268.69l-1.51,1.51h-2.14l-1.5-1.51v-2.14l1.5-1.5h2.14l1.51,1.5v2.14Z" style="fill:#331c10;isolation:isolate;opacity:.77" /><path d="M318.62,277.95l-1.89,1.89h-2.66l-1.88-1.89v-2.66l1.88-1.88h2.66l1.89,1.88v2.66Z" style="fill:#331c10;isolation:isolate;opacity:.7" /><path d="M327.45,277.88l-1.79,1.79h-2.52l-1.78-1.79v-2.52l1.78-1.78h2.52l1.79,1.78v2.52ZM336.37,277.85l-1.74,1.74h-2.46l-1.74-1.74v-2.46l1.74-1.74h2.46l1.74,1.74v2.46Z" style="fill:#331c10;isolation:isolate;opacity:.7" /><path d="M345.05,277.72l-1.55,1.55h-2.2l-1.55-1.55v-2.2l1.55-1.55h2.2l1.55,1.55v2.2Z" style="fill:#331c10;isolation:isolate;opacity:.7" /><path d="M354.28,277.81l-1.69,1.69h-2.38l-1.69-1.69v-2.38l1.69-1.69h2.38l1.69,1.69v2.38ZM363.11,277.74l-1.59,1.59h-2.24l-1.58-1.59v-2.24l1.58-1.58h2.24l1.59,1.58v2.24Z" style="fill:#331c10;isolation:isolate;opacity:.7" /><path d="M372.19,277.78l-1.63,1.63h-2.31l-1.63-1.63v-2.31l1.63-1.63h2.31l1.63,1.63v2.31Z" style="fill:#331c10;isolation:isolate;opacity:.7" /><path d="M327.31,286.82l-1.71,1.71h-2.4l-1.7-1.71v-2.4l1.7-1.7h2.4l1.71,1.7v2.4Z" style="fill:#331c10;isolation:isolate;opacity:.64" /><path d="M336.11,286.74l-1.59,1.59h-2.24l-1.59-1.59v-2.24l1.59-1.59h2.24l1.59,1.59v2.24ZM345,286.7l-1.52,1.52h-2.16l-1.52-1.52v-2.16l1.52-1.52h2.16l1.52,1.52v2.16Z" style="fill:#331c10;isolation:isolate;opacity:.64" /><path d="M354.45,286.89l-1.78,1.78h-2.53l-1.79-1.78v-2.53l1.79-1.79h2.53l1.78,1.79v2.53Z" style="fill:#331c10;isolation:isolate;opacity:.64" /><path d="M363.3,286.82l-1.7,1.7h-2.4l-1.7-1.7v-2.4l1.7-1.7h2.4l1.7,1.7v2.4ZM372.15,286.76l-1.61,1.61h-2.28l-1.61-1.61v-2.28l1.61-1.61h2.28l1.61,1.61v2.28Z" style="fill:#331c10;isolation:isolate;opacity:.64" /><path d="M326.86,295.64l-1.44,1.44h-2.04l-1.44-1.44v-2.04l1.44-1.44h2.04l1.44,1.44v2.04ZM336.12,295.75l-1.59,1.59h-2.25l-1.59-1.59v-2.25l1.59-1.59h2.25l1.59,1.59v2.25Z" style="fill:#331c10;isolation:isolate;opacity:.57" /><path d="M345.61,295.95l-1.88,1.88h-2.66l-1.88-1.88v-2.66l1.88-1.88h2.66l1.88,1.88v2.66ZM354.51,295.91l-1.82,1.82h-2.58l-1.82-1.82v-2.58l1.82-1.82h2.58l1.82,1.82v2.58Z" style="fill:#331c10;isolation:isolate;opacity:.57" /><path d="M362.92,295.66l-1.48,1.48h-2.08l-1.48-1.48v-2.08l1.48-1.48h2.08l1.48,1.48v2.08Z" style="fill:#331c10;isolation:isolate;opacity:.57" /><path d="M372.19,295.77l-1.64,1.64h-2.3l-1.63-1.64v-2.3l1.63-1.63h2.3l1.64,1.63v2.3Z" style="fill:#331c10;isolation:isolate;opacity:.57" /><path d="M327.52,304.91l-1.83,1.83h-2.58l-1.82-1.83v-2.58l1.82-1.82h2.58l1.83,1.82v2.58Z" style="fill:#331c10;isolation:isolate;opacity:.5" /><path d="M336.5,304.91l-1.81,1.81h-2.57l-1.82-1.81v-2.57l1.82-1.82h2.57l1.81,1.82v2.57ZM344.93,304.67l-1.48,1.48h-2.09l-1.48-1.48v-2.09l1.48-1.48h2.09l1.48,1.48v2.09Z" style="fill:#331c10;isolation:isolate;opacity:.5" /><path d="M354.42,304.87l-1.77,1.77h-2.5l-1.76-1.77v-2.5l1.76-1.76h2.5l1.77,1.76v2.5ZM362.99,304.69l-1.52,1.52h-2.14l-1.52-1.52v-2.14l1.52-1.52h2.14l1.52,1.52v2.14Z" style="fill:#331c10;isolation:isolate;opacity:.5" /><path d="M372.34,304.84l-1.72,1.72h-2.44l-1.72-1.72v-2.44l1.72-1.72h2.44l1.72,1.72v2.44Z" style="fill:#331c10;isolation:isolate;opacity:.5" /><path d="M327.03,313.71l-1.54,1.54h-2.18l-1.53-1.54v-2.18l1.53-1.53h2.18l1.54,1.53v2.18ZM336.07,313.73l-1.56,1.56h-2.21l-1.57-1.56v-2.21l1.57-1.57h2.21l1.56,1.57v2.21Z" style="fill:#331c10;isolation:isolate;opacity:.43" /><path d="M345.58,313.94l-1.86,1.86h-2.63l-1.86-1.86v-2.63l1.86-1.86h2.63l1.86,1.86v2.63ZM354.18,313.77l-1.63,1.63h-2.3l-1.62-1.63v-2.3l1.62-1.62h2.3l1.63,1.62v2.3Z" style="fill:#331c10;isolation:isolate;opacity:.43" /><path d="M363.36,313.85l-1.73,1.73h-2.46l-1.73-1.73v-2.46l1.73-1.73h2.46l1.73,1.73v2.46ZM371.93,313.67l-1.48,1.48h-2.1l-1.48-1.48v-2.1l1.48-1.48h2.1l1.48,1.48v2.1Z" style="fill:#331c10;isolation:isolate;opacity:.43" /><path d="M327.55,322.93l-1.84,1.84h-2.61l-1.85-1.84v-2.61l1.85-1.85h2.61l1.84,1.85v2.61Z" style="fill:#331c10;isolation:isolate;opacity:.37" /><path d="M336.28,322.81l-1.69,1.69h-2.38l-1.69-1.69v-2.38l1.69-1.69h2.38l1.69,1.69v2.38ZM344.93,322.67l-1.48,1.48h-2.1l-1.48-1.48v-2.1l1.48-1.48h2.1l1.48,1.48v2.1Z" style="fill:#331c10;isolation:isolate;opacity:.37" /><path d="M354.07,322.73l-1.56,1.56h-2.21l-1.56-1.56v-2.21l1.56-1.56h2.21l1.56,1.56v2.21ZM363.07,322.73l-1.56,1.56h-2.21l-1.57-1.56v-2.21l1.57-1.57h2.21l1.56,1.57v2.21Z" style="fill:#331c10;isolation:isolate;opacity:.37" /><path d="M317.94,331.67l-1.49,1.49h-2.1l-1.48-1.49v-2.1l1.48-1.48h2.1l1.49,1.48v2.1Z" style="fill:#331c10;isolation:isolate;opacity:.3" /><path d="M327.51,331.91l-1.82,1.82h-2.58l-1.82-1.82v-2.58l1.82-1.82h2.58l1.82,1.82v2.58ZM336.55,331.92l-1.85,1.85h-2.6l-1.84-1.85v-2.6l1.84-1.84h2.6l1.85,1.84v2.6Z" style="fill:#331c10;isolation:isolate;opacity:.3" /><path d="M345.02,331.7l-1.54,1.54h-2.16l-1.53-1.54v-2.16l1.53-1.53h2.16l1.54,1.53v2.16ZM354.35,331.84l-1.73,1.73h-2.44l-1.73-1.73v-2.44l1.73-1.73h2.44l1.73,1.73v2.44Z" style="fill:#331c10;isolation:isolate;opacity:.3" /><path d="M362.9,331.66l-1.46,1.46h-2.07l-1.47-1.46v-2.07l1.47-1.47h2.07l1.46,1.47v2.07ZM371.99,331.69l-1.52,1.52h-2.14l-1.52-1.52v-2.14l1.52-1.52h2.14l1.52,1.52v2.14Z" style="fill:#331c10;isolation:isolate;opacity:.3" /><path d="M308.98,340.69l-1.51,1.51h-2.14l-1.5-1.51v-2.14l1.5-1.5h2.14l1.51,1.5v2.14Z" style="fill:#331c10;isolation:isolate;opacity:.25" /><path d="M318.22,340.79l-1.65,1.65h-2.34l-1.65-1.65v-2.34l1.65-1.65h2.34l1.65,1.65v2.34ZM327.3,340.82l-1.7,1.7h-2.4l-1.7-1.7v-2.4l1.7-1.7h2.4l1.7,1.7v2.4Z" style="fill:#331c10;isolation:isolate;opacity:.25" /><path d="M335.94,340.67l-1.49,1.49h-2.1l-1.49-1.49v-2.1l1.49-1.49h2.1l1.49,1.49v2.1Z" style="fill:#331c10;isolation:isolate;opacity:.25" /><path d="M345.53,340.92l-1.83,1.83h-2.59l-1.83-1.83v-2.59l1.83-1.83h2.59l1.83,1.83v2.59Z" style="fill:#331c10;isolation:isolate;opacity:.25" /><path d="M354.25,340.8l-1.67,1.67h-2.36l-1.67-1.67v-2.36l1.67-1.67h2.36l1.67,1.67v2.36ZM363.26,340.8l-1.68,1.68h-2.36l-1.67-1.68v-2.36l1.67-1.67h2.36l1.68,1.67v2.36Z" style="fill:#331c10;isolation:isolate;opacity:.25" /><path d="M372.26,340.8l-1.68,1.68h-2.36l-1.67-1.68v-2.36l1.67-1.67h2.36l1.68,1.67v2.36Z" style="fill:#331c10;isolation:isolate;opacity:.25" /><path d="M299.89,349.65l-1.46,1.46h-2.06l-1.46-1.46v-2.06l1.46-1.46h2.06l1.46,1.46v2.06Z" style="fill:#331c10;isolation:isolate;opacity:.2" /><path d="M309.17,349.77l-1.62,1.62h-2.29l-1.62-1.62v-2.29l1.62-1.62h2.29l1.62,1.62v2.29ZM317.91,349.66l-1.47,1.47h-2.08l-1.46-1.47v-2.08l1.46-1.46h2.08l1.47,1.46v2.08ZM327.03,349.71l-1.54,1.54h-2.18l-1.53-1.54v-2.18l1.53-1.53h2.18l1.54,1.53v2.18Z" style="fill:#331c10;isolation:isolate;opacity:.2" /><path d="M336.53,349.92l-1.83,1.83h-2.59l-1.84-1.83v-2.59l1.84-1.84h2.59l1.83,1.84v2.59Z" style="fill:#331c10;isolation:isolate;opacity:.2" /><path d="M345.13,349.75l-1.6,1.6h-2.26l-1.6-1.6v-2.26l1.6-1.6h2.26l1.6,1.6v2.26ZM354.21,349.79l-1.65,1.64h-2.32l-1.65-1.64v-2.33l1.65-1.65h2.32l1.65,1.65v2.33Z" style="fill:#331c10;isolation:isolate;opacity:.2" /><path d="M362.99,349.69l-1.52,1.52h-2.14l-1.51-1.52v-2.14l1.51-1.51h2.14l1.52,1.51v2.14ZM371.98,349.69l-1.51,1.51h-2.14l-1.51-1.51v-2.14l1.51-1.51h2.14l1.51,1.51v2.14Z" style="fill:#331c10;isolation:isolate;opacity:.2" /><path d="M381.04,349.71l-1.55,1.55h-2.18l-1.54-1.55v-2.18l1.54-1.54h2.18l1.55,1.54v2.18Z" style="fill:#331c10;isolation:isolate;opacity:.2" /><path d="M291.21,358.79l-1.64,1.64h-2.33l-1.65-1.64v-2.33l1.65-1.65h2.33l1.64,1.65v2.33Z" style="fill:#331c10;isolation:isolate;opacity:.16" /><path d="M299.97,358.69l-1.5,1.5h-2.13l-1.51-1.5v-2.13l1.51-1.51h2.13l1.5,1.51v2.13ZM308.99,358.69l-1.52,1.52h-2.14l-1.52-1.52v-2.14l1.52-1.52h2.14l1.52,1.52v2.14ZM318.44,358.88l-1.78,1.78h-2.52l-1.78-1.78v-2.52l1.78-1.78h2.52l1.78,1.78v2.52Z" style="fill:#331c10;isolation:isolate;opacity:.16" /><path d="M327.16,358.76l-1.62,1.62h-2.28l-1.62-1.62v-2.28l1.62-1.62h2.28l1.62,1.62v2.28ZM336.6,358.95l-1.87,1.87h-2.65l-1.88-1.87v-2.65l1.88-1.88h2.65l1.87,1.88v2.65Z" style="fill:#331c10;isolation:isolate;opacity:.16" /><path d="M345.48,358.9l-1.8,1.8h-2.56l-1.8-1.8v-2.56l1.8-1.8h2.56l1.8,1.8v2.56Z" style="fill:#331c10;isolation:isolate;opacity:.16" /><path d="M354.14,358.76l-1.6,1.6h-2.27l-1.61-1.6v-2.27l1.61-1.61h2.27l1.6,1.61v2.27ZM363.38,358.86l-1.74,1.74h-2.47l-1.75-1.74v-2.47l1.75-1.75h2.47l1.74,1.75v2.47Z" style="fill:#331c10;isolation:isolate;opacity:.16" /><path d="M372.51,358.91l-1.82,1.82h-2.58l-1.82-1.82v-2.58l1.82-1.82h2.58l1.82,1.82v2.58ZM380.98,358.69l-1.51,1.51h-2.14l-1.51-1.51v-2.14l1.51-1.51h2.14l1.51,1.51v2.14Z" style="fill:#331c10;isolation:isolate;opacity:.16" /><path d="M390.09,358.73l-1.58,1.58h-2.22l-1.57-1.58v-2.22l1.57-1.57h2.22l1.58,1.57v2.22Z" style="fill:#331c10;isolation:isolate;opacity:.16" /><path d="M282.64,367.96l-1.9,1.9h-2.68l-1.9-1.9v-2.68l1.9-1.9h2.68l1.9,1.9v2.68ZM291.39,367.86l-1.75,1.76h-2.48l-1.75-1.76v-2.48l1.75-1.75h2.48l1.75,1.75v2.48ZM300.04,367.71l-1.55,1.55h-2.18l-1.55-1.55v-2.18l1.55-1.55h2.18l1.55,1.55v2.18ZM309.32,367.83l-1.71,1.71h-2.42l-1.7-1.71v-2.42l1.7-1.7h2.42l1.71,1.7v2.42Z" style="fill:#331c10;isolation:isolate;opacity:.13" /><path d="M318.46,367.89l-1.79,1.79h-2.54l-1.79-1.79v-2.54l1.79-1.79h2.54l1.79,1.79v2.54ZM327.15,367.76l-1.61,1.61h-2.28l-1.6-1.61v-2.28l1.6-1.6h2.28l1.61,1.6v2.28Z" style="fill:#331c10;isolation:isolate;opacity:.13" /><path d="M336.5,367.9l-1.82,1.82h-2.56l-1.82-1.82v-2.56l1.82-1.82h2.56l1.82,1.82v2.56Z" style="fill:#331c10;isolation:isolate;opacity:.13" /><path d="M345.04,367.72l-1.54,1.54h-2.19l-1.55-1.54v-2.19l1.55-1.55h2.19l1.54,1.55v2.19Z" style="fill:#331c10;isolation:isolate;opacity:.13" /><path d="M354.52,367.91l-1.83,1.83h-2.58l-1.83-1.83v-2.58l1.83-1.83h2.58l1.83,1.83v2.58Z" style="fill:#331c10;isolation:isolate;opacity:.13" /><path d="M362.97,367.69l-1.5,1.5h-2.13l-1.51-1.5v-2.13l1.51-1.51h2.13l1.5,1.51v2.13ZM372.1,367.74l-1.58,1.58h-2.24l-1.58-1.58v-2.24l1.58-1.58h2.24l1.58,1.58v2.24Z" style="fill:#331c10;isolation:isolate;opacity:.13" /><path d="M381.53,367.92l-1.83,1.83h-2.6l-1.83-1.83v-2.6l1.83-1.83h2.6l1.83,1.83v2.6ZM390.01,367.7l-1.53,1.53h-2.16l-1.52-1.53v-2.16l1.52-1.52h2.16l1.53,1.52v2.16Z" style="fill:#331c10;isolation:isolate;opacity:.13" /><path d="M273.38,376.86l-1.74,1.74h-2.47l-1.75-1.74v-2.47l1.75-1.75h2.47l1.74,1.75v2.47ZM282.3,376.82l-1.7,1.7h-2.4l-1.69-1.7v-2.4l1.69-1.69h2.4l1.7,1.69v2.4ZM291.41,376.87l-1.76,1.76h-2.5l-1.76-1.76v-2.5l1.76-1.76h2.5l1.76,1.76v2.5ZM300.44,376.88l-1.78,1.78h-2.52l-1.77-1.78v-2.52l1.77-1.77h2.52l1.78,1.77v2.52ZM309.04,376.71l-1.55,1.55h-2.18l-1.54-1.55v-2.18l1.54-1.54h2.18l1.55,1.54v2.18ZM318.16,376.77l-1.61,1.61h-2.29l-1.62-1.61v-2.29l1.62-1.62h2.29l1.61,1.62v2.29Z" style="fill:#331c10;isolation:isolate;opacity:.11" /><path d="M327.05,376.72l-1.55,1.55h-2.19l-1.55-1.55v-2.19l1.55-1.55h2.19l1.55,1.55v2.19ZM336.02,376.71l-1.53,1.53h-2.18l-1.53-1.53v-2.18l1.53-1.53h2.18l1.53,1.53v2.18Z" style="fill:#331c10;isolation:isolate;opacity:.11" /><path d="M344.96,376.68l-1.5,1.5h-2.12l-1.49-1.5v-2.12l1.49-1.49h2.12l1.5,1.49v2.12ZM353.89,376.65l-1.46,1.46h-2.06l-1.46-1.46v-2.06l1.46-1.46h2.06l1.46,1.46v2.06Z" style="fill:#331c10;isolation:isolate;opacity:.11" /><path d="M363.04,376.71l-1.55,1.55h-2.18l-1.54-1.55v-2.18l1.54-1.54h2.18l1.55,1.54v2.18Z" style="fill:#331c10;isolation:isolate;opacity:.11" /><path d="M372.09,376.74l-1.57,1.57h-2.23l-1.58-1.57v-2.23l1.58-1.58h2.23l1.57,1.58v2.23Z" style="fill:#331c10;isolation:isolate;opacity:.11" /><path d="M381.16,376.76l-1.62,1.62h-2.28l-1.61-1.62v-2.28l1.61-1.61h2.28l1.62,1.61v2.28Z" style="fill:#331c10;isolation:isolate;opacity:.11" /><path d="M390.2,376.78l-1.64,1.64h-2.32l-1.64-1.64v-2.32l1.64-1.64h2.32l1.64,1.64v2.32ZM399.15,376.76l-1.61,1.61h-2.28l-1.61-1.61v-2.28l1.61-1.61h2.28l1.61,1.61v2.28Z" style="fill:#331c10;isolation:isolate;opacity:.11" /><path d="M273.22,385.79l-1.65,1.65h-2.34l-1.65-1.65v-2.34l1.65-1.65h2.34l1.65,1.65v2.34ZM282.51,385.91l-1.82,1.82h-2.58l-1.82-1.82v-2.58l1.82-1.82h2.58l1.82,1.82v2.58ZM291.47,385.89l-1.8,1.8h-2.54l-1.79-1.8v-2.54l1.79-1.79h2.54l1.8,1.79v2.54ZM300.28,385.81l-1.69,1.69h-2.38l-1.69-1.69v-2.38l1.69-1.69h2.38l1.69,1.69v2.38ZM309.01,385.7l-1.53,1.53h-2.16l-1.53-1.53v-2.16l1.53-1.53h2.16l1.53,1.53v2.16ZM318.21,385.78l-1.65,1.65h-2.32l-1.64-1.65v-2.32l1.64-1.64h2.32l1.65,1.64v2.32ZM326.95,385.68l-1.49,1.49h-2.11l-1.5-1.49v-2.11l1.5-1.5h2.11l1.49,1.5v2.11ZM336.15,385.76l-1.61,1.61h-2.28l-1.61-1.61v-2.28l1.61-1.61h2.28l1.61,1.61v2.28ZM345.31,385.83l-1.7,1.7h-2.41l-1.71-1.7v-2.41l1.71-1.71h2.41l1.7,1.71v2.41ZM354.58,385.94l-1.86,1.86h-2.63l-1.86-1.86v-2.63l1.86-1.86h2.63l1.86,1.86v2.63Z" style="fill:#331c10;isolation:isolate;opacity:.1" /><path d="M363.52,385.92l-1.82,1.82h-2.59l-1.83-1.82v-2.59l1.83-1.83h2.59l1.82,1.83v2.59ZM372.19,385.78l-1.63,1.63h-2.31l-1.63-1.63v-2.31l1.63-1.63h2.31l1.63,1.63v2.31Z" style="fill:#331c10;isolation:isolate;opacity:.1" /><path d="M381.18,385.77l-1.63,1.63h-2.3l-1.63-1.63v-2.3l1.63-1.63h2.3l1.63,1.63v2.3ZM390.34,385.84l-1.72,1.72h-2.44l-1.72-1.72v-2.44l1.72-1.72h2.44l1.72,1.72v2.44Z" style="fill:#331c10;isolation:isolate;opacity:.1" /><path d="M399.47,385.89l-1.8,1.8h-2.54l-1.8-1.8v-2.54l1.8-1.8h2.54l1.8,1.8v2.54Z" style="fill:#331c10;isolation:isolate;opacity:.1" /><path d="M273.22,394.79l-1.65,1.65h-2.34l-1.65-1.65v-2.34l1.65-1.65h2.34l1.65,1.65v2.34ZM281.93,394.67l-1.48,1.48h-2.1l-1.48-1.48v-2.1l1.48-1.48h2.1l1.48,1.48v2.1ZM291.04,394.71l-1.55,1.55h-2.18l-1.54-1.55v-2.18l1.54-1.54h2.18l1.55,1.54v2.18ZM300.42,394.87l-1.77,1.77h-2.5l-1.77-1.77v-2.5l1.77-1.77h2.5l1.77,1.77v2.5ZM309.38,394.85l-1.75,1.75h-2.46l-1.75-1.75v-2.46l1.75-1.75h2.46l1.75,1.75v2.46ZM318.59,394.94l-1.87,1.87h-2.64l-1.87-1.87v-2.64l1.87-1.87h2.64l1.87,1.87v2.64ZM327.39,394.86l-1.75,1.75h-2.48l-1.75-1.75v-2.48l1.75-1.75h2.48l1.75,1.75v2.48ZM336,394.7l-1.52,1.52h-2.16l-1.52-1.52v-2.16l1.52-1.52h2.16l1.52,1.52v2.16ZM344.9,394.66l-1.46,1.46h-2.07l-1.47-1.46v-2.07l1.47-1.47h2.07l1.46,1.47v2.07ZM354.59,394.94l-1.87,1.87h-2.64l-1.87-1.87v-2.64l1.87-1.87h2.64l1.87,1.87v2.64Z" style="fill:#331c10;isolation:isolate;opacity:.1" /><path d="M363.08,394.73l-1.57,1.57h-2.22l-1.56-1.57v-2.22l1.56-1.56h2.22l1.57,1.56v2.22ZM372.1,394.74l-1.58,1.58h-2.24l-1.58-1.58v-2.24l1.58-1.58h2.24l1.58,1.58v2.24Z" style="fill:#331c10;isolation:isolate;opacity:.1" /><path d="M381.62,394.95l-1.89,1.89h-2.66l-1.89-1.89v-2.66l1.89-1.89h2.66l1.89,1.89v2.66ZM390.47,394.89l-1.8,1.8h-2.54l-1.8-1.8v-2.54l1.8-1.8h2.54l1.8,1.8v2.54Z" style="fill:#331c10;isolation:isolate;opacity:.1" /><path d="M399.63,394.96l-1.89,1.89h-2.68l-1.89-1.89v-2.68l1.89-1.89h2.68l1.89,1.89v2.68ZM408.21,394.78l-1.65,1.65h-2.32l-1.64-1.65v-2.32l1.64-1.64h2.32l1.65,1.64v2.32Z" style="fill:#331c10;isolation:isolate;opacity:.1" /><path d="M264.38,403.86l-1.74,1.74h-2.47l-1.75-1.74v-2.47l1.75-1.75h2.47l1.74,1.75v2.47ZM273.03,403.71l-1.54,1.54h-2.18l-1.54-1.54v-2.18l1.54-1.54h2.18l1.54,1.54v2.18ZM282.03,403.71l-1.54,1.54h-2.18l-1.54-1.54v-2.18l1.54-1.54h2.18l1.54,1.54v2.18ZM291.56,403.93l-1.85,1.85h-2.62l-1.84-1.85v-2.62l1.84-1.84h2.62l1.85,1.84v2.62ZM300.07,403.73l-1.56,1.56h-2.21l-1.57-1.56v-2.21l1.57-1.57h2.21l1.56,1.57v2.21ZM309.27,403.81l-1.68,1.68h-2.38l-1.68-1.68v-2.38l1.68-1.68h2.38l1.68,1.68v2.38ZM317.94,403.67l-1.49,1.49h-2.1l-1.48-1.49v-2.1l1.48-1.48h2.1l1.49,1.48v2.1ZM326.91,403.66l-1.47,1.47h-2.08l-1.47-1.47v-2.08l1.47-1.47h2.08l1.47,1.47v2.08ZM336.28,403.81l-1.69,1.69h-2.38l-1.68-1.69v-2.38l1.68-1.68h2.38l1.69,1.68v2.38ZM345.53,403.92l-1.83,1.83h-2.59l-1.84-1.83v-2.59l1.84-1.84h2.59l1.83,1.84v2.59ZM354.41,403.87l-1.76,1.76h-2.49l-1.76-1.76v-2.49l1.76-1.76h2.49l1.76,1.76v2.49Z" style="fill:#331c10;isolation:isolate;opacity:.1" /><path d="M363.33,403.84l-1.71,1.71h-2.43l-1.72-1.71v-2.43l1.72-1.72h2.43l1.71,1.72v2.43ZM372.55,403.93l-1.84,1.84h-2.61l-1.85-1.84v-2.61l1.85-1.85h2.61l1.84,1.85v2.61Z" style="fill:#331c10;isolation:isolate;opacity:.1" /><path d="M381.41,403.87l-1.76,1.76h-2.49l-1.77-1.76v-2.49l1.77-1.77h2.49l1.76,1.77v2.49ZM390.52,403.91l-1.83,1.83h-2.58l-1.83-1.83v-2.58l1.83-1.83h2.58l1.83,1.83v2.58Z" style="fill:#331c10;isolation:isolate;opacity:.1" /><path d="M399.54,403.92l-1.84,1.84h-2.6l-1.83-1.84v-2.6l1.83-1.83h2.6l1.84,1.83v2.6ZM407.98,403.69l-1.51,1.51h-2.14l-1.51-1.51v-2.14l1.51-1.51h2.14l1.51,1.51v2.14Z" style="fill:#331c10;isolation:isolate;opacity:.1" /><path d="M264.58,412.94l-1.86,1.86h-2.64l-1.86-1.86v-2.64l1.86-1.86h2.64l1.86,1.86v2.64ZM273.57,412.94l-1.85,1.85h-2.63l-1.86-1.85v-2.63l1.86-1.86h2.63l1.85,1.86v2.63ZM282.14,412.75l-1.61,1.61h-2.26l-1.6-1.61v-2.26l1.6-1.6h2.26l1.61,1.6v2.26ZM291.62,412.95l-1.89,1.89h-2.66l-1.89-1.89v-2.66l1.89-1.89h2.66l1.89,1.89v2.66ZM300.47,412.89l-1.8,1.8h-2.54l-1.8-1.8v-2.54l1.8-1.8h2.54l1.8,1.8v2.54ZM309.06,412.72l-1.56,1.56h-2.2l-1.56-1.56v-2.2l1.56-1.56h2.2l1.56,1.56v2.2ZM318.08,412.73l-1.57,1.57h-2.22l-1.56-1.57v-2.22l1.56-1.56h2.22l1.57,1.56v2.22ZM327.36,412.85l-1.73,1.73h-2.45l-1.74-1.73v-2.45l1.74-1.74h2.45l1.73,1.74v2.45ZM336.03,412.71l-1.54,1.54h-2.18l-1.54-1.54v-2.18l1.54-1.54h2.18l1.54,1.54v2.18ZM345.54,412.92l-1.84,1.84h-2.6l-1.83-1.84v-2.6l1.83-1.83h2.6l1.84,1.83v2.6ZM354.5,412.9l-1.82,1.82h-2.56l-1.82-1.82v-2.56l1.82-1.82h2.56l1.82,1.82v2.56Z" style="fill:#331c10;isolation:isolate;opacity:.1" /><path d="M363.56,412.93l-1.85,1.85h-2.62l-1.85-1.85v-2.62l1.85-1.85h2.62l1.85,1.85v2.62ZM372.15,412.76l-1.61,1.61h-2.28l-1.61-1.61v-2.28l1.61-1.61h2.28l1.61,1.61v2.28Z" style="fill:#331c10;isolation:isolate;opacity:.1" /><path d="M381.02,412.71l-1.53,1.53h-2.17l-1.54-1.53v-2.17l1.54-1.54h2.17l1.53,1.54v2.17ZM390.1,412.74l-1.58,1.58h-2.24l-1.58-1.58v-2.24l1.58-1.58h2.24l1.58,1.58v2.24Z" style="fill:#331c10;isolation:isolate;opacity:.1" /><path d="M399.19,412.78l-1.63,1.63h-2.31l-1.64-1.63v-2.31l1.64-1.64h2.31l1.63,1.64v2.31ZM408.31,412.83l-1.7,1.7h-2.41l-1.71-1.7v-2.41l1.71-1.71h2.41l1.7,1.71v2.41Z" style="fill:#331c10;isolation:isolate;opacity:.1" /><path d="M263.88,421.65l-1.45,1.45h-2.06l-1.45-1.45v-2.06l1.45-1.45h2.06l1.45,1.45v2.06ZM273.19,421.78l-1.63,1.63h-2.31l-1.64-1.63v-2.31l1.64-1.64h2.31l1.63,1.64v2.31ZM282.11,421.74l-1.59,1.59h-2.24l-1.59-1.59v-2.24l1.59-1.59h2.24l1.59,1.59v2.24ZM291.21,421.79l-1.64,1.64h-2.33l-1.65-1.64v-2.33l1.65-1.65h2.33l1.64,1.65v2.33ZM300.18,421.77l-1.63,1.63h-2.3l-1.63-1.63v-2.3l1.63-1.63h2.3l1.63,1.63v2.3ZM308.87,421.64l-1.45,1.45h-2.04l-1.44-1.45v-2.04l1.44-1.44h2.04l1.45,1.44v2.04ZM318.01,421.7l-1.53,1.53h-2.16l-1.53-1.53v-2.16l1.53-1.53h2.16l1.53,1.53v2.16ZM327.3,421.82l-1.7,1.7h-2.4l-1.69-1.7v-2.4l1.69-1.69h2.4l1.7,1.69v2.4ZM336.37,421.85l-1.74,1.74h-2.46l-1.74-1.74v-2.46l1.74-1.74h2.46l1.74,1.74v2.46ZM345.48,421.89l-1.81,1.81h-2.54l-1.8-1.81v-2.54l1.8-1.8h2.54l1.81,1.8v2.54ZM353.94,421.67l-1.49,1.49h-2.1l-1.49-1.49v-2.1l1.49-1.49h2.1l1.49,1.49v2.1Z" style="fill:#331c10;isolation:isolate;opacity:.1" /><path d="M362.91,421.66l-1.47,1.47h-2.08l-1.46-1.47v-2.08l1.46-1.46h2.08l1.47,1.46v2.08ZM372.27,421.81l-1.68,1.68h-2.38l-1.68-1.68v-2.38l1.68-1.68h2.38l1.68,1.68v2.38Z" style="fill:#331c10;isolation:isolate;opacity:.1" /><path d="M380.89,421.65l-1.46,1.46h-2.06l-1.46-1.46v-2.06l1.46-1.46h2.06l1.46,1.46v2.06ZM390.54,421.92l-1.84,1.84h-2.6l-1.84-1.84v-2.6l1.84-1.84h2.6l1.84,1.84v2.6Z" style="fill:#331c10;isolation:isolate;opacity:.1" /><path d="M399.53,421.92l-1.83,1.83h-2.6l-1.83-1.83v-2.6l1.83-1.83h2.6l1.83,1.83v2.6ZM408.08,421.73l-1.57,1.57h-2.22l-1.57-1.57v-2.22l1.57-1.56h2.22l1.57,1.56v2.22Z" style="fill:#331c10;isolation:isolate;opacity:.1" /><path d="M264.61,430.95l-1.88,1.88h-2.66l-1.88-1.88v-2.66l1.88-1.88h2.66l1.88,1.88v2.66ZM273.24,430.8l-1.66,1.66h-2.35l-1.67-1.66v-2.35l1.67-1.67h2.35l1.66,1.67v2.35ZM282.15,430.76l-1.61,1.61h-2.28l-1.61-1.61v-2.28l1.61-1.61h2.28l1.61,1.61v2.28ZM291.36,430.85l-1.73,1.73h-2.46l-1.73-1.73v-2.46l1.73-1.73h2.46l1.73,1.73v2.46ZM300.23,430.79l-1.66,1.66h-2.34l-1.66-1.66v-2.34l1.66-1.66h2.34l1.66,1.66v2.34ZM309.36,430.85l-1.73,1.73h-2.45l-1.73-1.73v-2.45l1.73-1.73h2.45l1.73,1.73v2.45ZM317.86,430.64l-1.44,1.44h-2.04l-1.44-1.44v-2.04l1.44-1.44h2.04l1.44,1.44v2.04ZM327.43,430.87l-1.78,1.78h-2.5l-1.77-1.78v-2.5l1.77-1.77h2.5l1.78,1.77v2.5ZM335.95,430.68l-1.49,1.49h-2.12l-1.49-1.49v-2.12l1.49-1.49h2.12l1.49,1.49v2.12ZM344.95,430.68l-1.49,1.49h-2.11l-1.5-1.49v-2.11l1.5-1.5h2.11l1.49,1.5v2.11ZM354,430.7l-1.52,1.52h-2.16l-1.52-1.52v-2.16l1.52-1.52h2.16l1.52,1.52v2.16Z" style="fill:#331c10;isolation:isolate;opacity:.1" /><path d="M363.09,430.73l-1.58,1.58h-2.22l-1.57-1.58v-2.22l1.57-1.57h2.22l1.58,1.57v2.22ZM371.94,430.67l-1.49,1.49h-2.1l-1.49-1.49v-2.1l1.49-1.49h2.1l1.49,1.49v2.1Z" style="fill:#331c10;isolation:isolate;opacity:.1" /><path d="M381.06,430.72l-1.56,1.56h-2.2l-1.56-1.56v-2.2l1.56-1.56h2.2l1.56,1.56v2.2ZM390.51,430.91l-1.82,1.82h-2.58l-1.82-1.82v-2.58l1.82-1.82h2.58l1.82,1.82v2.58Z" style="fill:#331c10;isolation:isolate;opacity:.1" /><path d="M398.92,430.66l-1.48,1.48h-2.08l-1.48-1.48v-2.08l1.48-1.48h2.08l1.48,1.48v2.08ZM408.3,430.82l-1.7,1.7h-2.4l-1.69-1.7v-2.4l1.69-1.69h2.4l1.7,1.69v2.4Z" style="fill:#331c10;isolation:isolate;opacity:.1" /></g></g></svg>