<svg xmlns="http://www.w3.org/2000/svg" height="448.62" viewBox="0 0 543.48 448.62" width="543.48"><defs><linearGradient gradientUnits="userSpaceOnUse" id="linear-gradient-2360" x1="187.86" x2="187.86" y1="175.35" y2="143.58"><stop offset="0" stop-color="#f7941f" /><stop offset=".06" stop-color="#f9b667" /><stop offset=".14" stop-color="#fcddb8" /><stop offset=".19" stop-color="#fef5eb" /><stop offset=".21" stop-color="#fff" /><stop offset=".34" stop-color="#fefdfb" /><stop offset=".44" stop-color="#fef8f0" /><stop offset=".55" stop-color="#fdefdf" /><stop offset=".64" stop-color="#fce3c6" /><stop offset=".74" stop-color="#fbd4a5" /><stop offset=".83" stop-color="#fac17e" /><stop offset=".92" stop-color="#f8ab4f" /><stop offset="1" stop-color="#f7941f" /></linearGradient><linearGradient gradientUnits="userSpaceOnUse" id="linear-gradient-2361" x1="201.09" x2="201.09" y1="188.93" y2="151.84"><stop offset="0" stop-color="#f7941f" /><stop offset=".06" stop-color="#f9b667" /><stop offset=".14" stop-color="#fcddb8" /><stop offset=".19" stop-color="#fef5eb" /><stop offset=".21" stop-color="#fff" /><stop offset=".34" stop-color="#fefdfb" /><stop offset=".44" stop-color="#fef8f0" /><stop offset=".55" stop-color="#fdefdf" /><stop offset=".64" stop-color="#fce3c6" /><stop offset=".74" stop-color="#fbd4a5" /><stop offset=".83" stop-color="#fac17e" /><stop offset=".92" stop-color="#f8ab4f" /><stop offset="1" stop-color="#f7941f" /></linearGradient><radialGradient cx="266.94" cy="168.24" fx="266.94" fy="168.24" gradientUnits="userSpaceOnUse" id="radial-gradient-1260" r="8.41"><stop offset="0" stop-color="#f7941f" /><stop offset=".03" stop-color="#f79426" /><stop offset=".1" stop-color="#f79432" /><stop offset=".19" stop-color="#f79439" /><stop offset=".44" stop-color="#f7953b" /><stop offset=".52" stop-color="#f79f4f" /><stop offset=".67" stop-color="#f9bb83" /><stop offset=".9" stop-color="#fde8d5" /><stop offset="1" stop-color="#fff" /></radialGradient><radialGradient cx="293.11" cy="174.07" fx="293.11" fy="174.07" gradientUnits="userSpaceOnUse" id="radial-gradient-1261" r="13.67"><stop offset="0" stop-color="#f7941f" /><stop offset=".03" stop-color="#f79424" /><stop offset=".11" stop-color="#f79431" /><stop offset=".21" stop-color="#f79438" /><stop offset=".44" stop-color="#f7953b" /><stop offset=".5" stop-color="#f79943" /><stop offset=".59" stop-color="#f8a65c" /><stop offset=".71" stop-color="#f9bc83" /><stop offset=".85" stop-color="#fcdaba" /><stop offset="1" stop-color="#fff" /></radialGradient></defs><g id="LazerCoral"><path d="M260.46,167.92c1.91-3.04,2.96-4.71,5.21-5.82.71-.35,4.19-1.94,7.49-.27.48.24,3.08,1.56,3.28,3.79.23,2.62-3.03,4.68-4.61,5.69-2.52,1.59-5.18,2.11-6.15,2.29-1.75.33-2.24.16-4.15.65-2.61.67-3.4,1.43-3.86,1.04-1.17-.98,2.64-7.11,2.8-7.37Z" style="fill:url(#radial-gradient-1260);fill-rule:evenodd" /><path d="M277.26,177.83c.14-1.92,2.76-1.72,5.6-5.4,2.92-3.78,1.93-6.29,4.6-8.21,1.96-1.4,4.18-1.27,6.97-1.09,1.64.1,7.53.55,11.75,5.12,1.35,1.46,2.95,3.19,2.78,5.38-.05.62-.35,2.82-6.2,6.4-5.28,3.23-8.9,5.44-13.9,5.05-5.79-.45-11.82-4.28-11.6-7.25Z" style="fill:url(#radial-gradient-1261);fill-rule:evenodd" /><path d="M266.64,168.35c-52.52-8.25-105.03-16.51-157.55-24.76h0v31.76c52.52-2.33,105.03-4.67,157.55-7Z" style="fill:url(#linear-gradient-2360);fill-rule:evenodd" /><path d="M293.11,174.22l-184.05-22.37h0v37.09l184.05-14.71Z" style="fill:url(#linear-gradient-2361);fill-rule:evenodd;opacity:.93" /></g></svg>